<svg width="38" height="50" fill="none" xmlns="http://www.w3.org/2000/svg"><path d="M32.019 27.938c-1.638 3.318-3.856 6.625-6.125 9.593A98.405 98.405 0 0119 45.563a98.348 98.348 0 01-6.894-8.032c-2.268-2.968-4.487-6.275-6.125-9.593-1.656-3.354-2.606-6.494-2.606-9.188a15.625 15.625 0 1131.25 0c0 2.694-.953 5.834-2.606 9.188zM19 50s18.75-17.769 18.75-31.25a18.75 18.75 0 10-37.5 0C.25 32.231 19 50 19 50z" fill="#F5F5F5"/><path d="M19 25a6.25 6.25 0 110-12.5A6.25 6.25 0 0119 25zm0 3.125a9.375 9.375 0 100-18.75 9.375 9.375 0 000 18.75z" fill="#F5F5F5"/></svg>