<svg width="375" height="3544" fill="none" xmlns="http://www.w3.org/2000/svg"><path d="M25.568-7C34.091 82.646 29.83 208.151 0 261.939M59.66-7C75.283 127.47 85.226 428.681 0 557.772M144.887-7c-7.103 233.081-45.17 704.62-140.625 726.136M208.807-7C197.443 244.01 140.625 783.681 4.262 934.287M285.511-7c-42.613 304.798-133.807 914.393-157.67 914.393-23.864 0-95.17 519.947-127.841 779.927M370.738-7C157.67 808.782-181.534 2660.88 166.193 3543M0 3166.48c7.102 116.54 28.977 355 59.659 376.51M375 315.727C196.023 1059.79-55.397 2354.29 370.739 1579.74m0-995.071c-100.852 421.341-281.25 1398.481 0 779.921m-.001 403.41c-171.875 125.5-375 699.24-149.148 1775M375 2090.73c-110.796 80.68-319.602 161.36-127.841 1425.38m123.579-1102.65c-82.386 26.89-242.897-134.47-98.011 1129.54m98.012-887.5c-53.978 62.75-166.194-215.15-68.182 887.5M375 2930.06c-36.116 48.64-103.833-321.07-45.145 612.93m32.361.01h8.523" stroke="#F1DED0" stroke-opacity=".29" stroke-width=".5" stroke-linecap="round"/></svg>