<svg width="1440" height="6863" fill="none" xmlns="http://www.w3.org/2000/svg"><path d="M98.25 1C131 174.257 114.625 416.818 0 520.772M229.25 1C289.291 260.886 327.5 843.031 0 1092.52M556.75 1C529.458 451.469 383.175 1362.8 16.375 1404.39M802.375 1c-43.667 485.121-262 1528.13-786 1819.2M1097.12 1C933.374 590.075 582.95 1768.23 491.25 1768.23c-91.7 0-365.708 1004.89-491.25 1507.33M1424.62 1C605.875 1577.64-697.574 5157.14 638.625 6861.99M0 6134.31c27.292 225.23 111.35 686.1 229.25 727.68M1441 624.73C753.251 2062.77-212.874 4564.6 1424.63 3067.66m0-1923.15c-387.55 814.31-1080.755 2702.81 0 1507.34m-.01 779.65C764.166 3674.06-16.375 4782.9 851.499 6861.99M1441 4055.23c-425.75 155.93-1228.125 311.86-491.25 2754.79m474.87-2131.06C1108.04 4730.93 491.249 4419.07 1048 6862m376.62-1715.26c-207.41 121.28-638.621-415.81-262 1715.25M1441 5677.38c-138.78 94.02-399-620.51-173.48 1184.61m124.35 0h32.75" stroke="#F1DED0" stroke-opacity=".29" stroke-width=".5" stroke-linecap="round"/></svg>