<svg width="20" height="20" fill="none" xmlns="http://www.w3.org/2000/svg"><path d="M3.31.935L10 7.625 16.656.97A1.596 1.596 0 0117.8.467 1.733 1.733 0 0119.533 2.2a1.56 1.56 0 01-.468 1.144L12.323 10l6.742 6.743c.286.28.454.658.468 1.057a1.733 1.733 0 01-1.733 1.733 1.594 1.594 0 01-1.196-.468L10 12.375l-6.673 6.673a1.594 1.594 0 01-1.127.485A1.734 1.734 0 01.467 17.8a1.56 1.56 0 01.468-1.144L7.677 10 .935 3.257A1.56 1.56 0 01.467 2.2 1.733 1.733 0 012.2.467c.416.005.815.173 1.11.468z" fill="#FFC099"/></svg>